<svg width="28" height="28" viewBox="0 0 28 28" fill="none" xmlns="http://www.w3.org/2000/svg">
<path d="M26.7472 12.3198L24.9338 10.2131C24.5872 9.81309 24.3072 9.06642 24.3072 8.53309V6.26642C24.3072 4.85309 23.1472 3.69309 21.7338 3.69309H19.4672C18.9472 3.69309 18.1872 3.41309 17.7872 3.06642L15.6805 1.25309C14.7605 0.466419 13.2538 0.466419 12.3205 1.25309L10.2272 3.07975C9.82716 3.41309 9.06716 3.69309 8.54716 3.69309H6.24049C4.82716 3.69309 3.66716 4.85309 3.66716 6.26642V8.54642C3.66716 9.06642 3.38716 9.81309 3.05383 10.2131L1.25383 12.3331C0.480495 13.2531 0.480495 14.7464 1.25383 15.6664L3.05383 17.7864C3.38716 18.1864 3.66716 18.9331 3.66716 19.4531V21.7331C3.66716 23.1464 4.82716 24.3064 6.24049 24.3064H8.54716C9.06716 24.3064 9.82716 24.5864 10.2272 24.9331L12.3338 26.7464C13.2538 27.5331 14.7605 27.5331 15.6938 26.7464L17.8005 24.9331C18.2005 24.5864 18.9472 24.3064 19.4805 24.3064H21.7472C23.1605 24.3064 24.3205 23.1464 24.3205 21.7331V19.4664C24.3205 18.9464 24.6005 18.1864 24.9472 17.7864L26.7605 15.6798C27.5338 14.7598 27.5338 13.2398 26.7472 12.3198ZM19.5472 11.4798L13.1072 17.9198C12.9205 18.1064 12.6672 18.2131 12.4005 18.2131C12.1338 18.2131 11.8805 18.1064 11.6938 17.9198L8.46716 14.6931C8.08049 14.3064 8.08049 13.6664 8.46716 13.2798C8.85383 12.8931 9.49383 12.8931 9.88049 13.2798L12.4005 15.7998L18.1338 10.0664C18.5205 9.67975 19.1605 9.67975 19.5472 10.0664C19.9338 10.4531 19.9338 11.0931 19.5472 11.4798Z" fill="#FF0000"/>
</svg>
